<?xml version="1.0" encoding="UTF-8"?>
<svg id="Calque_1" data-name="Calque 1" xmlns="http://www.w3.org/2000/svg" version="1.1" viewBox="0 0 200 200">
  <defs>
    <style>
      .cls-1, .cls-2 {
        fill: #706f6f;
      }

      .cls-1, .cls-3 {
        font-family: Montserrat-Regular, Montserrat;
        font-size: 14px;
      }

      .cls-2, .cls-4, .cls-5 {
        stroke-width: 0px;
      }

      .cls-4, .cls-3 {
        fill: #1d1d1b;
      }

      .cls-5 {
        fill: #fff;
      }
    </style>
  </defs>
  <g>
    <g>
      <path class="cls-4" d="M4054.5,3863.7v323.3c117.5,0,202.4-9.7,254.7-29.1,52.2-19.4,78.4-62.5,78.4-129.3s-25.6-113.7-76.7-134.2c-51.1-20.5-136.5-30.7-256.3-30.7Z"/>
      <path class="cls-4" d="M3239.8,3643.9v-1290.6l-281.3,281.3v1099.5l209,209c48-81.7,72.3-181.3,72.3-299.3Z"/>
      <path class="cls-4" d="M5198.9,2353.1v1287.6c105.6-92.5,184.3-197.4,236-314.6,51.7-117.2,77.6-240.4,77.6-369.5s-26.4-233.4-79.2-338.9c-52.8-105.4-130.9-193.6-234.4-264.6Z"/>
      <path class="cls-4" d="M4982.3,3970.4c-32.3,19.4-65.7,36.7-100.2,51.7-21.5,8.6-67.9,27-139,55l-106.7-190.7c88.4-32.3,161.7-61.3,219.8-87.2,6.5-2.1,48.5-21.5,126.1-58.1v-1736.9l-147-147h-1099.5l-282.7,282.7v1510.4c0,118.6-12.4,215.6-37.2,291-18.6,56.7-47,111.8-85,165.3l404.9,404.9h1099.5l147-147v-394.2ZM4466.6,3751.2c43.6,34.3,75.3,74,94.9,118.9,15.3,27.9,25.7,54.1,31.1,78.8,5.5,24.6,8.2,55.2,8.2,91.5,0,75-13,132.9-38.9,173.6-39,75-115.8,127.5-230.6,157.5-75.8,19.3-182.9,28.9-321.4,28.9h-168.8v-536.7h-227.5l-131.4-219.8h358.9v-1668.3c116.9,0,269.5,99.2,457.8,297.6,201.3,213.5,301.9,413,301.9,598.5s-18,376.3-54,495c-36,118.6-105.3,223.2-207.9,313.8,52.3,21.4,94.9,45,127.7,70.7Z"/>
      <path class="cls-4" d="M5580.5,3485.1c-88.4,166-215.6,300.8-381.5,404.3v258.6l413.9-413.9v-314.6c-10,22.1-20.8,43.9-32.4,65.7Z"/>
      <path class="cls-4" d="M4054.5,2353.9v1283.5c98-53.8,175.8-134.7,233.5-242.5,57.7-107.8,86.6-233.8,86.6-378.3s-28.3-268.3-84.9-378.3c-56.6-109.9-135-204.7-235.2-284.5Z"/>
    </g>
    <g>
      <path class="cls-4" d="M6590.4,2678.9c0,104-75.4,166.8-199.6,166.8h-131.1v154.2h-51.7v-488.4h182.8c124.2,0,199.6,62.8,199.6,167.5ZM6538.7,2678.9c0-78.1-51.6-122.8-149.3-122.8h-129.8v244.2h129.8c97.7,0,149.3-44.7,149.3-121.4Z"/>
      <path class="cls-4" d="M7008.8,2831.7h-307c5.6,76.8,64.2,127.7,144.4,127.7s84.4-16.1,112.4-48.1l27.9,32.1c-32.8,39.1-83.7,60-141.6,60-114.5,0-192.6-78.1-192.6-187s76-186.3,179.3-186.3,177.9,76.1,177.9,186.3-.7,9.8-.7,15.3ZM6701.8,2794.7h260.3c-6.3-71.9-58.6-122.1-130.5-122.1s-123.5,50.2-129.8,122.1Z"/>
      <path class="cls-4" d="M7295.3,2630v48.1c-4.2,0-8.4-.7-11.9-.7-76.8,0-123.5,48.9-123.5,135.4v187h-49.5v-367h47.4v71.9c23.1-48.8,69.8-74.6,137.5-74.6Z"/>
      <path class="cls-4" d="M7446.6,2589.6v43.2h113.1v41.9h-111.6v325.1h-49.6v-325.1h-65.6v-41.9h65.6v-45.3c0-65.6,39.1-108.9,111-108.9s55.1,7.7,73.3,23l-16.7,37c-14-11.9-33.5-18.1-54.4-18.1-42.6,0-64.9,23.7-64.9,69.1Z"/>
      <path class="cls-4" d="M7583.3,2816.3c0-108.8,79.5-186.3,187-186.3s186.3,77.4,186.3,186.3-78.9,187-186.3,187-187-78.1-187-187ZM7906.3,2816.3c0-85.8-57.9-143-136.1-143s-136.7,57.2-136.7,143,58.6,143,136.7,143,136.1-57.2,136.1-143Z"/>
      <path class="cls-4" d="M8242.4,2630v48.1c-4.2,0-8.4-.7-11.9-.7-76.8,0-123.5,48.9-123.5,135.4v187h-49.5v-367h47.4v71.9c23.1-48.8,69.8-74.6,137.5-74.6Z"/>
      <path class="cls-4" d="M8937.2,2787v212.8h-49.5v-207.9c0-77.4-39.1-117.2-105.4-117.2s-122.8,48.8-122.8,132.6v192.6h-49.6v-207.9c0-77.4-39.1-117.2-106-117.2s-122.8,48.8-122.8,132.6v192.6h-49.5v-367h47.4v67c25.8-44,73.3-69.8,134.7-69.8s108.1,25.8,130.5,77.4c26.5-47.5,78.9-77.4,145.2-77.4s147.9,51.6,147.9,157Z"/>
      <path class="cls-4" d="M9348.5,2772.4v227.5h-47.5v-57.2c-22.3,37.7-65.6,60.7-126.3,60.7s-134-43.2-134-106.8,36.3-104,141.7-104h116.5v-22.3c0-62.8-35.6-97-104-97s-92.1,16.8-122.1,43.3l-22.3-37c37-31.4,91.4-49.5,149.3-49.5,94.9,0,148.7,47.4,148.7,142.3ZM9298.9,2889.6v-60h-115.1c-71.2,0-94.2,27.9-94.2,65.6s34.2,69.1,92.8,69.1,97-26.5,116.5-74.7Z"/>
      <path class="cls-4" d="M9820.6,2787v212.8h-49.5v-207.9c0-77.4-40.5-117.2-110.2-117.2s-128.4,48.8-128.4,132.6v192.6h-49.5v-367h47.4v67.7c26.5-44.7,76.1-70.5,139.6-70.5s150.7,51.6,150.7,157Z"/>
      <path class="cls-4" d="M9919.5,2816.3c0-109.5,79.5-186.3,189.1-186.3s114.4,24.4,143.7,72.6l-37,25.1c-25.1-37-64.2-54.4-106.8-54.4-80.3,0-138.8,57.2-138.8,143s58.6,143,138.8,143,81.6-16.7,106.8-53.7l37,25.1c-29.3,47.5-81.6,72.6-143.7,72.6-109.5,0-189.1-77.4-189.1-187Z"/>
      <path class="cls-4" d="M10662.3,2831.7h-307c5.6,76.8,64.2,127.7,144.4,127.7s84.4-16.1,112.4-48.1l27.9,32.1c-32.8,39.1-83.7,60-141.6,60-114.5,0-192.6-78.1-192.6-187s76-186.3,179.3-186.3,177.9,76.1,177.9,186.3-.7,9.8-.7,15.3ZM10355.3,2794.7h260.3c-6.3-71.9-58.6-122.1-130.5-122.1s-123.5,50.2-129.8,122.1Z"/>
      <path class="cls-4" d="M6474.5,3609.2v227.5h-47.4v-57.2c-22.3,37.7-65.6,60.7-126.3,60.7s-134-43.2-134-106.8,36.3-104,141.7-104h116.5v-22.3c0-62.8-35.6-97-104-97s-92.1,16.8-122.1,43.3l-22.3-37c37-31.4,91.4-49.5,149.3-49.5,94.9,0,148.6,47.4,148.6,142.3ZM6425,3726.4v-60h-115.1c-71.2,0-94.2,27.9-94.2,65.6s34.2,69.1,92.8,69.1,97-26.5,116.5-74.7Z"/>
      <path class="cls-4" d="M6558.1,3794.8l22.3-39.1c29.3,23.1,78.9,41.2,130.5,41.2s98.4-23.7,98.4-60c0-95.6-238-20.2-238-165.3s51.7-104.7,145.2-104.7,99.1,13.3,129.8,34.2l-21.6,39.7c-32.1-22.3-70.4-31.4-108.1-31.4-66.3,0-95.6,25.8-95.6,60.7,0,99.1,237.9,24.4,237.9,165.3s-55.8,104.7-151.4,104.7-119.3-19.6-149.3-45.3Z"/>
      <path class="cls-4" d="M7409.7,3609.2v227.5h-47.4v-57.2c-22.3,37.7-65.6,60.7-126.3,60.7s-134-43.2-134-106.8,36.3-104,141.7-104h116.5v-22.3c0-62.8-35.6-97-104-97s-92.1,16.8-122.1,43.3l-22.3-37c37-31.4,91.4-49.5,149.3-49.5,94.9,0,148.6,47.4,148.6,142.3ZM7360.2,3726.4v-60h-115.1c-71.2,0-94.2,27.9-94.2,65.6s34.2,69.1,92.8,69.1,97-26.5,116.5-74.7Z"/>
      <path class="cls-4" d="M7690.6,3777.4l20.2-39.8c34.9,34.2,97,59.3,161.2,59.3,91.4,0,131.1-38.4,131.1-86.5,0-134-300.7-51.6-300.7-232.3s55.8-134,180-134,112.3,16,151.4,43.2l-17.4,41.2c-41.9-27.2-90.7-40.5-134-40.5-89.3,0-129.1,39.8-129.1,88.6,0,134,300.7,53,300.7,231s-57.2,133.2-182.1,133.2-145.2-25.8-181.4-63.5Z"/>
      <path class="cls-4" d="M8475.3,3668.5h-307c5.6,76.8,64.2,127.7,144.4,127.7s84.4-16.1,112.4-48.1l27.9,32.1c-32.8,39.1-83.7,60-141.6,60-114.5,0-192.6-78.2-192.6-187s76-186.3,179.3-186.3,177.9,76.1,177.9,186.3-.7,9.8-.7,15.3ZM8168.3,3631.5h260.3c-6.3-71.8-58.6-122.1-130.5-122.1s-123.5,50.3-129.8,122.1Z"/>
      <path class="cls-4" d="M8761.8,3466.9v48.2c-4.2,0-8.4-.7-11.9-.7-76.8,0-123.5,48.8-123.5,135.4v187h-49.5v-367h47.4v71.9c23.1-48.8,69.8-74.7,137.5-74.7Z"/>
      <path class="cls-4" d="M9175.5,3469.6l-163.3,367h-51l-162.6-367h51.7l137.4,312.6,138.9-312.6h48.8Z"/>
      <path class="cls-4" d="M9233.9,3353.8c0-18.8,16-34.9,36.2-34.9s36.3,15.4,36.3,34.2-15.3,36.3-36.3,36.3-36.2-16.1-36.2-35.6ZM9245,3469.6h49.5v367h-49.5v-367Z"/>
      <path class="cls-4" d="M9395.6,3653.2c0-109.5,79.5-186.3,189.1-186.3s114.4,24.4,143.7,72.6l-37,25.1c-25.1-37-64.2-54.4-106.8-54.4-80.3,0-138.8,57.3-138.8,143.1s58.6,143,138.8,143,81.6-16.7,106.8-53.7l37,25.1c-29.3,47.5-81.6,72.6-143.7,72.6-109.5,0-189.1-77.4-189.1-187Z"/>
      <path class="cls-4" d="M10138.5,3668.5h-307c5.6,76.8,64.2,127.7,144.4,127.7s84.4-16.1,112.4-48.1l27.9,32.1c-32.8,39.1-83.7,60-141.6,60-114.5,0-192.6-78.2-192.6-187s76-186.3,179.3-186.3,177.9,76.1,177.9,186.3-.7,9.8-.7,15.3ZM9831.5,3631.5h260.3c-6.3-71.8-58.6-122.1-130.5-122.1s-123.5,50.3-129.8,122.1Z"/>
    </g>
  </g>
  <g>
    <g>
      <path class="cls-4" d="M2860.7-1285.5v9.9c3.6,0,6.2-.3,7.8-.9,1.6-.6,2.4-1.9,2.4-4s-.8-3.5-2.4-4.1c-1.6-.6-4.2-.9-7.9-.9Z"/>
      <path class="cls-4" d="M2835.7-1292.3v-39.6l-8.6,8.6v33.7l6.4,6.4c1.5-2.5,2.2-5.6,2.2-9.2Z"/>
      <path class="cls-4" d="M2895.8-1331.9v39.5c3.2-2.8,5.7-6.1,7.2-9.6,1.6-3.6,2.4-7.4,2.4-11.3s-.8-7.2-2.4-10.4c-1.6-3.2-4-5.9-7.2-8.1Z"/>
      <path class="cls-4" d="M2889.1-1282.3c-1,.6-2,1.1-3.1,1.6-.7.3-2.1.8-4.3,1.7l-3.3-5.8c2.7-1,5-1.9,6.7-2.7.2,0,1.5-.7,3.9-1.8v-53.3l-4.5-4.5h-33.7l-8.7,8.7v46.3c0,3.6-.4,6.6-1.1,8.9-.6,1.7-1.4,3.4-2.6,5.1l12.4,12.4h33.7l4.5-4.5v-12.1ZM2873.3-1289c1.3,1.1,2.3,2.3,2.9,3.6.5.9.8,1.7,1,2.4.2.8.3,1.7.3,2.8,0,2.3-.4,4.1-1.2,5.3-1.2,2.3-3.6,3.9-7.1,4.8-2.3.6-5.6.9-9.9.9h-5.2v-16.5h-7l-4-6.7h11v-51.2c3.6,0,8.3,3,14,9.1,6.2,6.5,9.3,12.7,9.3,18.4s-.6,11.5-1.7,15.2c-1.1,3.6-3.2,6.8-6.4,9.6,1.6.7,2.9,1.4,3.9,2.2Z"/>
      <path class="cls-4" d="M2907.5-1297.1c-2.7,5.1-6.6,9.2-11.7,12.4v7.9l12.7-12.7v-9.6c-.3.7-.6,1.3-1,2Z"/>
      <path class="cls-4" d="M2860.7-1331.8v39.4c3-1.7,5.4-4.1,7.2-7.4,1.8-3.3,2.7-7.2,2.7-11.6s-.9-8.2-2.6-11.6c-1.7-3.4-4.1-6.3-7.2-8.7Z"/>
    </g>
    <g>
      <path class="cls-4" d="M2938.5-1321.9c0,3.2-2.3,5.1-6.1,5.1h-4v4.7h-1.6v-15h5.6c3.8,0,6.1,1.9,6.1,5.1ZM2936.9-1321.9c0-2.4-1.6-3.8-4.6-3.8h-4v7.5h4c3,0,4.6-1.4,4.6-3.7Z"/>
      <path class="cls-4" d="M2951.3-1317.2h-9.4c.2,2.4,2,3.9,4.4,3.9s2.6-.5,3.4-1.5l.9,1c-1,1.2-2.6,1.8-4.3,1.8-3.5,0-5.9-2.4-5.9-5.7s2.3-5.7,5.5-5.7,5.5,2.3,5.5,5.7,0,.3,0,.5ZM2941.9-1318.3h8c-.2-2.2-1.8-3.7-4-3.7s-3.8,1.5-4,3.7Z"/>
      <path class="cls-4" d="M2960.1-1323.4v1.5c-.1,0-.3,0-.4,0-2.4,0-3.8,1.5-3.8,4.2v5.7h-1.5v-11.3h1.5v2.2c.7-1.5,2.1-2.3,4.2-2.3Z"/>
      <path class="cls-4" d="M2964.7-1324.6v1.3h3.5v1.3h-3.4v10h-1.5v-10h-2v-1.3h2v-1.4c0-2,1.2-3.3,3.4-3.3s1.7.2,2.2.7l-.5,1.1c-.4-.4-1-.6-1.7-.6-1.3,0-2,.7-2,2.1Z"/>
      <path class="cls-4" d="M2968.9-1317.6c0-3.3,2.4-5.7,5.7-5.7s5.7,2.4,5.7,5.7-2.4,5.7-5.7,5.7-5.7-2.4-5.7-5.7ZM2978.8-1317.6c0-2.6-1.8-4.4-4.2-4.4s-4.2,1.8-4.2,4.4,1.8,4.4,4.2,4.4,4.2-1.8,4.2-4.4Z"/>
      <path class="cls-4" d="M2989.1-1323.4v1.5c-.1,0-.3,0-.4,0-2.4,0-3.8,1.5-3.8,4.2v5.7h-1.5v-11.3h1.5v2.2c.7-1.5,2.1-2.3,4.2-2.3Z"/>
      <path class="cls-4" d="M3010.4-1318.5v6.5h-1.5v-6.4c0-2.4-1.2-3.6-3.2-3.6s-3.8,1.5-3.8,4.1v5.9h-1.5v-6.4c0-2.4-1.2-3.6-3.3-3.6s-3.8,1.5-3.8,4.1v5.9h-1.5v-11.3h1.5v2.1c.8-1.3,2.2-2.1,4.1-2.1s3.3.8,4,2.4c.8-1.5,2.4-2.4,4.5-2.4s4.5,1.6,4.5,4.8Z"/>
      <path class="cls-4" d="M3023-1319v7h-1.5v-1.8c-.7,1.2-2,1.9-3.9,1.9s-4.1-1.3-4.1-3.3,1.1-3.2,4.3-3.2h3.6v-.7c0-1.9-1.1-3-3.2-3s-2.8.5-3.7,1.3l-.7-1.1c1.1-1,2.8-1.5,4.6-1.5,2.9,0,4.6,1.5,4.6,4.4ZM3021.5-1315.4v-1.8h-3.5c-2.2,0-2.9.9-2.9,2s1,2.1,2.8,2.1,3-.8,3.6-2.3Z"/>
      <path class="cls-4" d="M3037.5-1318.5v6.5h-1.5v-6.4c0-2.4-1.2-3.6-3.4-3.6s-3.9,1.5-3.9,4.1v5.9h-1.5v-11.3h1.5v2.1c.8-1.4,2.3-2.2,4.3-2.2s4.6,1.6,4.6,4.8Z"/>
      <path class="cls-4" d="M3040.5-1317.6c0-3.4,2.4-5.7,5.8-5.7s3.5.7,4.4,2.2l-1.1.8c-.8-1.1-2-1.7-3.3-1.7-2.5,0-4.3,1.8-4.3,4.4s1.8,4.4,4.3,4.4,2.5-.5,3.3-1.6l1.1.8c-.9,1.5-2.5,2.2-4.4,2.2-3.4,0-5.8-2.4-5.8-5.7Z"/>
      <path class="cls-4" d="M3063.3-1317.2h-9.4c.2,2.4,2,3.9,4.4,3.9s2.6-.5,3.4-1.5l.9,1c-1,1.2-2.6,1.8-4.3,1.8-3.5,0-5.9-2.4-5.9-5.7s2.3-5.7,5.5-5.7,5.5,2.3,5.5,5.7,0,.3,0,.5ZM3053.9-1318.3h8c-.2-2.2-1.8-3.7-4-3.7s-3.8,1.5-4,3.7Z"/>
      <path class="cls-4" d="M2934.9-1293.3v7h-1.5v-1.8c-.7,1.2-2,1.9-3.9,1.9s-4.1-1.3-4.1-3.3,1.1-3.2,4.3-3.2h3.6v-.7c0-1.9-1.1-3-3.2-3s-2.8.5-3.7,1.3l-.7-1.1c1.1-1,2.8-1.5,4.6-1.5,2.9,0,4.6,1.5,4.6,4.4ZM2933.4-1289.7v-1.8h-3.5c-2.2,0-2.9.9-2.9,2s1,2.1,2.8,2.1,3-.8,3.6-2.3Z"/>
      <path class="cls-4" d="M2937.5-1287.6l.7-1.2c.9.7,2.4,1.3,4,1.3s3-.7,3-1.8c0-2.9-7.3-.6-7.3-5.1s1.6-3.2,4.5-3.2,3,.4,4,1l-.7,1.2c-1-.7-2.2-1-3.3-1-2,0-2.9.8-2.9,1.9,0,3,7.3.7,7.3,5.1s-1.7,3.2-4.6,3.2-3.7-.6-4.6-1.4Z"/>
      <path class="cls-4" d="M2963.6-1293.3v7h-1.5v-1.8c-.7,1.2-2,1.9-3.9,1.9s-4.1-1.3-4.1-3.3,1.1-3.2,4.3-3.2h3.6v-.7c0-1.9-1.1-3-3.2-3s-2.8.5-3.7,1.3l-.7-1.1c1.1-1,2.8-1.5,4.6-1.5,2.9,0,4.6,1.5,4.6,4.4ZM2962.1-1289.7v-1.8h-3.5c-2.2,0-2.9.9-2.9,2s1,2.1,2.8,2.1,3-.8,3.6-2.3Z"/>
      <path class="cls-4" d="M2972.2-1288.2l.6-1.2c1.1,1,3,1.8,4.9,1.8,2.8,0,4-1.2,4-2.7,0-4.1-9.2-1.6-9.2-7.1s1.7-4.1,5.5-4.1,3.4.5,4.6,1.3l-.5,1.3c-1.3-.8-2.8-1.2-4.1-1.2-2.7,0-4,1.2-4,2.7,0,4.1,9.2,1.6,9.2,7.1s-1.8,4.1-5.6,4.1-4.5-.8-5.6-1.9Z"/>
      <path class="cls-4" d="M2996.3-1291.5h-9.4c.2,2.4,2,3.9,4.4,3.9s2.6-.5,3.4-1.5l.9,1c-1,1.2-2.6,1.8-4.3,1.8-3.5,0-5.9-2.4-5.9-5.7s2.3-5.7,5.5-5.7,5.5,2.3,5.5,5.7,0,.3,0,.5ZM2986.8-1292.6h8c-.2-2.2-1.8-3.7-4-3.7s-3.8,1.5-4,3.7Z"/>
      <path class="cls-4" d="M3005-1297.7v1.5c-.1,0-.3,0-.4,0-2.4,0-3.8,1.5-3.8,4.2v5.7h-1.5v-11.3h1.5v2.2c.7-1.5,2.1-2.3,4.2-2.3Z"/>
      <path class="cls-4" d="M3017.7-1297.6l-5,11.3h-1.6l-5-11.3h1.6l4.2,9.6,4.3-9.6h1.5Z"/>
      <path class="cls-4" d="M3019.5-1301.2c0-.6.5-1.1,1.1-1.1s1.1.5,1.1,1-.5,1.1-1.1,1.1-1.1-.5-1.1-1.1ZM3019.9-1297.6h1.5v11.3h-1.5v-11.3Z"/>
      <path class="cls-4" d="M3024.5-1292c0-3.4,2.4-5.7,5.8-5.7s3.5.7,4.4,2.2l-1.1.8c-.8-1.1-2-1.7-3.3-1.7-2.5,0-4.3,1.8-4.3,4.4s1.8,4.4,4.3,4.4,2.5-.5,3.3-1.6l1.1.8c-.9,1.5-2.5,2.2-4.4,2.2-3.4,0-5.8-2.4-5.8-5.7Z"/>
      <path class="cls-4" d="M3047.3-1291.5h-9.4c.2,2.4,2,3.9,4.4,3.9s2.6-.5,3.4-1.5l.9,1c-1,1.2-2.6,1.8-4.3,1.8-3.5,0-5.9-2.4-5.9-5.7s2.3-5.7,5.5-5.7,5.5,2.3,5.5,5.7,0,.3,0,.5ZM3037.8-1292.6h8c-.2-2.2-1.8-3.7-4-3.7s-3.8,1.5-4,3.7Z"/>
    </g>
  </g>
  <g>
    <path class="cls-4" d="M3835.5-1225.5v6.5c2.4,0,4.1-.2,5.1-.6,1-.4,1.6-1.3,1.6-2.6s-.5-2.3-1.5-2.7c-1-.4-2.7-.6-5.1-.6Z"/>
    <path class="cls-4" d="M3819.1-1229.9v-25.9l-5.6,5.6v22.1l4.2,4.2c1-1.6,1.5-3.6,1.5-6Z"/>
    <path class="cls-4" d="M3858.5-1255.8v25.8c2.1-1.9,3.7-4,4.7-6.3,1-2.4,1.6-4.8,1.6-7.4s-.5-4.7-1.6-6.8c-1.1-2.1-2.6-3.9-4.7-5.3Z"/>
    <path class="cls-4" d="M3854.1-1223.3c-.6.4-1.3.7-2,1-.4.2-1.4.5-2.8,1.1l-2.1-3.8c1.8-.6,3.2-1.2,4.4-1.8.1,0,1-.4,2.5-1.2v-34.9l-3-3h-22.1l-5.7,5.7v30.3c0,2.4-.2,4.3-.7,5.8-.4,1.1-.9,2.2-1.7,3.3l8.1,8.1h22.1l3-3v-7.9ZM3843.8-1227.7c.9.7,1.5,1.5,1.9,2.4.3.6.5,1.1.6,1.6.1.5.2,1.1.2,1.8,0,1.5-.3,2.7-.8,3.5-.8,1.5-2.3,2.6-4.6,3.2-1.5.4-3.7.6-6.5.6h-3.4v-10.8h-4.6l-2.6-4.4h7.2v-33.5c2.3,0,5.4,2,9.2,6,4,4.3,6.1,8.3,6.1,12s-.4,7.6-1.1,9.9c-.7,2.4-2.1,4.5-4.2,6.3,1.1.4,1.9.9,2.6,1.4Z"/>
    <path class="cls-4" d="M3866.1-1233.1c-1.8,3.3-4.3,6-7.7,8.1v5.2l8.3-8.3v-6.3c-.2.4-.4.9-.6,1.3Z"/>
    <path class="cls-4" d="M3835.5-1255.8v25.8c2-1.1,3.5-2.7,4.7-4.9,1.2-2.2,1.7-4.7,1.7-7.6s-.6-5.4-1.7-7.6c-1.1-2.2-2.7-4.1-4.7-5.7Z"/>
  </g>
  <text class="cls-3" transform="translate(3877.1 -1242.8)"><tspan x="0" y="0">Performance</tspan><tspan x="0" y="16.8">as a Service</tspan></text>
  <g>
    <path class="cls-2" d="M6156.4,4393.4l5.2-11.1c4.3,3.7,10.1,5.6,16.9,5.6,11.5,0,17.9-7,17.9-20.4v-116.3h14.6v116.3c0,20-11.1,32.9-31.7,32.9s-17.5-2.3-22.9-7ZM6193,4216.9c0-5.6,4.7-10.3,10.7-10.3s10.7,4.5,10.7,10.1-4.5,10.7-10.7,10.7-10.7-4.7-10.7-10.5Z"/>
    <path class="cls-2" d="M6361.4,4305.3c0,32.7-23.1,55.2-53.9,55.2s-32.9-7.8-41.8-22.4v21.4h-14v-152.8h14.6v65.1c9.1-14,23.9-21.4,41.2-21.4,30.9,0,53.9,22.2,53.9,55ZM6346.8,4305.3c0-25.3-17.5-42.2-40.4-42.2s-40.3,16.9-40.3,42.2,17.3,42.2,40.3,42.2,40.4-16.9,40.4-42.2Z"/>
    <path class="cls-2" d="M6385.2,4297.2h53.9v12.8h-53.9v-12.8Z"/>
    <path class="cls-2" d="M6581.6,4305.3c0,32.9-23.1,55.2-53.9,55.2s-32.1-7.4-41.2-21.4v60.3h-14.6v-148.2h14v21.4c8.9-14.4,23.9-22.2,41.8-22.2,30.9,0,53.9,22.2,53.9,55ZM6567,4305.3c0-25.1-17.5-42.2-40.4-42.2s-40.3,17.1-40.3,42.2,17.3,42.2,40.3,42.2,40.4-16.9,40.4-42.2Z"/>
    <path class="cls-2" d="M6598.8,4349.1c0-6.4,4.9-11.1,10.9-11.1s11.1,4.7,11.1,11.1-5.2,11.3-11.1,11.3-10.9-4.9-10.9-11.3Z"/>
    <path class="cls-2" d="M6668.6,4238.4v12.8h33.4v12.4h-32.9v95.9h-14.6v-95.9h-19.3v-12.4h19.3v-13.4c0-19.3,11.5-32.1,32.7-32.1s16.3,2.3,21.6,6.8l-4.9,10.9c-4.1-3.5-9.9-5.4-16.1-5.4-12.6,0-19.1,7-19.1,20.4Z"/>
    <path class="cls-2" d="M6792.7,4250.3v14.2c-1.2,0-2.5-.2-3.5-.2-22.6,0-36.4,14.4-36.4,39.9v55.2h-14.6v-108.3h14v21.2c6.8-14.4,20.6-22,40.6-22Z"/>
  </g>
  <g>
    <g>
      <path class="cls-4" d="M3171.2-434.8v65c23.6,0,40.7-1.9,51.2-5.8,10.5-3.9,15.7-12.6,15.7-26s-5.1-22.8-15.4-27c-10.3-4.1-27.4-6.2-51.5-6.2Z"/>
      <path class="cls-4" d="M3007.4-479v-259.3l-56.5,56.5v220.9l42,42c9.7-16.4,14.5-36.4,14.5-60.1Z"/>
      <path class="cls-4" d="M3401.1-738.4v258.7c21.2-18.6,37-39.7,47.4-63.2,10.4-23.6,15.6-48.3,15.6-74.2s-5.3-46.9-15.9-68.1c-10.6-21.2-26.3-38.9-47.1-53.2Z"/>
      <path class="cls-4" d="M3357.6-413.4c-6.5,3.9-13.2,7.4-20.1,10.4-4.3,1.7-13.6,5.4-27.9,11l-21.4-38.3c17.8-6.5,32.5-12.3,44.2-17.5,1.3-.4,9.7-4.3,25.3-11.7v-349l-29.5-29.5h-220.9l-56.8,56.8v303.5c0,23.8-2.5,43.3-7.5,58.5-3.7,11.4-9.4,22.5-17.1,33.2l81.4,81.4h220.9l29.5-29.5v-79.2ZM3254-457.4c8.8,6.9,15.1,14.9,19.1,23.9,3.1,5.6,5.2,10.9,6.3,15.8,1.1,5,1.6,11.1,1.6,18.4,0,15.1-2.6,26.7-7.8,34.9-7.8,15.1-23.3,25.6-46.3,31.6-15.2,3.9-36.8,5.8-64.6,5.8h-33.9v-107.8h-45.7l-26.4-44.2h72.1v-335.2c23.5,0,54.2,19.9,92,59.8,40.4,42.9,60.7,83,60.7,120.3s-3.6,75.6-10.9,99.5c-7.2,23.8-21.2,44.9-41.8,63.1,10.5,4.3,19.1,9,25.7,14.2Z"/>
      <path class="cls-4" d="M3477.8-510.9c-17.8,33.4-43.3,60.5-76.7,81.2v52l83.2-83.2v-63.2c-2,4.4-4.2,8.8-6.5,13.2Z"/>
      <path class="cls-4" d="M3171.2-738.2v257.9c19.7-10.8,35.3-27.1,46.9-48.7,11.6-21.7,17.4-47,17.4-76s-5.7-53.9-17.1-76c-11.4-22.1-27.1-41.1-47.3-57.2Z"/>
    </g>
    <g>
      <path class="cls-4" d="M3680.8-672.9c0,20.9-15.2,33.5-40.1,33.5h-26.4v31h-10.4v-98.2h36.7c25,0,40.1,12.6,40.1,33.7ZM3670.4-672.9c0-15.7-10.4-24.7-30-24.7h-26.1v49.1h26.1c19.6,0,30-9,30-24.4Z"/>
      <path class="cls-4" d="M3764.8-642.2h-61.7c1.1,15.4,12.9,25.7,29,25.7s17-3.2,22.6-9.7l5.6,6.4c-6.6,7.9-16.8,12.1-28.5,12.1-23,0-38.7-15.7-38.7-37.6s15.3-37.4,36-37.4,35.8,15.3,35.8,37.4-.1,2-.1,3.1ZM3703.1-649.6h52.3c-1.3-14.4-11.8-24.5-26.2-24.5s-24.8,10.1-26.1,24.5Z"/>
      <path class="cls-4" d="M3822.4-682.7v9.7c-.8,0-1.7-.1-2.4-.1-15.4,0-24.8,9.8-24.8,27.2v37.6h-10v-73.8h9.5v14.4c4.6-9.8,14-15,27.6-15Z"/>
      <path class="cls-4" d="M3852.8-690.9v8.7h22.7v8.4h-22.4v65.3h-10v-65.3h-13.2v-8.4h13.2v-9.1c0-13.2,7.8-21.9,22.3-21.9s11.1,1.5,14.7,4.6l-3.4,7.4c-2.8-2.4-6.7-3.6-10.9-3.6-8.6,0-13,4.8-13,13.9Z"/>
      <path class="cls-4" d="M3880.3-645.3c0-21.9,16-37.4,37.6-37.4s37.4,15.6,37.4,37.4-15.8,37.6-37.4,37.6-37.6-15.7-37.6-37.6ZM3945.2-645.3c0-17.2-11.6-28.7-27.3-28.7s-27.5,11.5-27.5,28.7,11.8,28.7,27.5,28.7,27.3-11.5,27.3-28.7Z"/>
      <path class="cls-4" d="M4012.7-682.7v9.7c-.8,0-1.7-.1-2.4-.1-15.4,0-24.8,9.8-24.8,27.2v37.6h-10v-73.8h9.5v14.4c4.6-9.8,14-15,27.6-15Z"/>
      <path class="cls-4" d="M4152.4-651.2v42.8h-10v-41.8c0-15.6-7.8-23.6-21.2-23.6s-24.7,9.8-24.7,26.6v38.7h-10v-41.8c0-15.6-7.8-23.6-21.3-23.6s-24.7,9.8-24.7,26.6v38.7h-10v-73.8h9.5v13.5c5.2-8.8,14.7-14,27.1-14s21.7,5.2,26.2,15.6c5.3-9.5,15.8-15.6,29.2-15.6s29.7,10.4,29.7,31.5Z"/>
      <path class="cls-4" d="M4235-654.1v45.7h-9.5v-11.5c-4.5,7.6-13.2,12.2-25.4,12.2s-26.9-8.7-26.9-21.5,7.3-20.9,28.5-20.9h23.4v-4.5c0-12.6-7.1-19.5-20.9-19.5s-18.5,3.4-24.5,8.7l-4.5-7.4c7.4-6.3,18.4-10,30-10,19.1,0,29.9,9.5,29.9,28.6ZM4225-630.6v-12.1h-23.1c-14.3,0-18.9,5.6-18.9,13.2s6.9,13.9,18.7,13.9,19.5-5.3,23.4-15Z"/>
      <path class="cls-4" d="M4329.9-651.2v42.8h-10v-41.8c0-15.6-8.1-23.6-22.2-23.6s-25.8,9.8-25.8,26.6v38.7h-10v-73.8h9.5v13.6c5.3-9,15.3-14.2,28-14.2s30.3,10.4,30.3,31.5Z"/>
      <path class="cls-4" d="M4349.7-645.3c0-22,16-37.4,38-37.4s23,4.9,28.9,14.6l-7.4,5c-5.1-7.4-12.9-10.9-21.5-10.9-16.1,0-27.9,11.5-27.9,28.7s11.8,28.7,27.9,28.7,16.4-3.4,21.5-10.8l7.4,5c-5.9,9.5-16.4,14.6-28.9,14.6-22,0-38-15.6-38-37.6Z"/>
      <path class="cls-4" d="M4499-642.2h-61.7c1.1,15.4,12.9,25.7,29,25.7s17-3.2,22.6-9.7l5.6,6.4c-6.6,7.9-16.8,12.1-28.5,12.1-23,0-38.7-15.7-38.7-37.6s15.3-37.4,36-37.4,35.8,15.3,35.8,37.4-.1,2-.1,3.1ZM4437.3-649.6h52.3c-1.3-14.4-11.8-24.5-26.2-24.5s-24.8,10.1-26.1,24.5Z"/>
      <path class="cls-4" d="M3657.5-486v45.7h-9.5v-11.5c-4.5,7.6-13.2,12.2-25.4,12.2s-26.9-8.7-26.9-21.5,7.3-20.9,28.5-20.9h23.4v-4.5c0-12.6-7.1-19.5-20.9-19.5s-18.5,3.4-24.5,8.7l-4.5-7.4c7.4-6.3,18.4-10,30-10,19.1,0,29.9,9.5,29.9,28.6ZM3647.5-462.4v-12.1h-23.1c-14.3,0-18.9,5.6-18.9,13.2s6.9,13.9,18.7,13.9,19.5-5.3,23.4-15Z"/>
      <path class="cls-4" d="M3674.3-448.6l4.5-7.9c5.9,4.6,15.8,8.3,26.2,8.3s19.8-4.8,19.8-12.1c0-19.2-47.8-4.1-47.8-33.2s10.4-21,29.2-21,19.9,2.7,26.1,6.9l-4.4,8c-6.5-4.5-14.2-6.3-21.7-6.3-13.3,0-19.2,5.2-19.2,12.2,0,19.9,47.8,4.9,47.8,33.2s-11.2,21-30.4,21-24-3.9-30-9.1Z"/>
      <path class="cls-4" d="M3845.4-486v45.7h-9.5v-11.5c-4.5,7.6-13.2,12.2-25.4,12.2s-26.9-8.7-26.9-21.5,7.3-20.9,28.5-20.9h23.4v-4.5c0-12.6-7.1-19.5-20.9-19.5s-18.5,3.4-24.5,8.7l-4.5-7.4c7.4-6.3,18.4-10,30-10,19.1,0,29.9,9.5,29.9,28.6ZM3835.4-462.4v-12.1h-23.1c-14.3,0-18.9,5.6-18.9,13.2s6.9,13.9,18.7,13.9,19.5-5.3,23.4-15Z"/>
      <path class="cls-4" d="M3901.8-452.2l4.1-8c7,6.9,19.5,11.9,32.4,11.9,18.4,0,26.4-7.7,26.4-17.4,0-26.9-60.4-10.4-60.4-46.7s11.2-26.9,36.2-26.9,22.6,3.2,30.4,8.7l-3.5,8.3c-8.4-5.5-18.2-8.1-26.9-8.1-17.9,0-25.9,8-25.9,17.8,0,26.9,60.4,10.7,60.4,46.4s-11.5,26.8-36.6,26.8-29.2-5.2-36.5-12.8Z"/>
      <path class="cls-4" d="M4059.5-474h-61.7c1.1,15.4,12.9,25.7,29,25.7s17-3.2,22.6-9.7l5.6,6.4c-6.6,7.9-16.8,12.1-28.5,12.1-23,0-38.7-15.7-38.7-37.6s15.3-37.4,36-37.4,35.8,15.3,35.8,37.4-.1,2-.1,3.1ZM3997.8-481.5h52.3c-1.3-14.4-11.8-24.5-26.2-24.5s-24.8,10.1-26.1,24.5Z"/>
      <path class="cls-4" d="M4117.1-514.6v9.7c-.8,0-1.7-.1-2.4-.1-15.4,0-24.8,9.8-24.8,27.2v37.6h-10v-73.8h9.5v14.4c4.6-9.8,14-15,27.6-15Z"/>
      <path class="cls-4" d="M4200.2-514l-32.8,73.8h-10.2l-32.7-73.8h10.4l27.6,62.8,27.9-62.8h9.8Z"/>
      <path class="cls-4" d="M4212-537.3c0-3.8,3.2-7,7.3-7s7.3,3.1,7.3,6.9-3.1,7.3-7.3,7.3-7.3-3.2-7.3-7.2ZM4214.2-514h10v73.8h-10v-73.8Z"/>
      <path class="cls-4" d="M4244.5-477.1c0-22,16-37.4,38-37.4s23,4.9,28.9,14.6l-7.4,5c-5.1-7.4-12.9-10.9-21.5-10.9-16.1,0-27.9,11.5-27.9,28.7s11.8,28.7,27.9,28.7,16.4-3.4,21.5-10.8l7.4,5c-5.9,9.5-16.4,14.6-28.9,14.6-22,0-38-15.6-38-37.6Z"/>
      <path class="cls-4" d="M4393.8-474h-61.7c1.1,15.4,12.9,25.7,29,25.7s17-3.2,22.6-9.7l5.6,6.4c-6.6,7.9-16.8,12.1-28.5,12.1-23,0-38.7-15.7-38.7-37.6s15.3-37.4,36-37.4,35.8,15.3,35.8,37.4-.1,2-.1,3.1ZM4332.1-481.5h52.3c-1.3-14.4-11.8-24.5-26.2-24.5s-24.8,10.1-26.1,24.5Z"/>
    </g>
  </g>
  <g>
    <path class="cls-2" d="M3593.5-328.4l1-2.2c.9.7,2,1.1,3.4,1.1,2.3,0,3.6-1.4,3.6-4.1v-23.4h2.9v23.4c0,4-2.2,6.6-6.4,6.6s-3.5-.5-4.6-1.4ZM3600.9-363.8c0-1.1,1-2.1,2.2-2.1s2.2.9,2.2,2-.9,2.2-2.2,2.2-2.2-1-2.2-2.1Z"/>
    <path class="cls-2" d="M3634.7-346.1c0,6.6-4.6,11.1-10.8,11.1s-6.6-1.6-8.4-4.5v4.3h-2.8v-30.7h2.9v13.1c1.8-2.8,4.8-4.3,8.3-4.3,6.2,0,10.8,4.5,10.8,11ZM3631.8-346.1c0-5.1-3.5-8.5-8.1-8.5s-8.1,3.4-8.1,8.5,3.5,8.5,8.1,8.5,8.1-3.4,8.1-8.5Z"/>
    <path class="cls-2" d="M3639.5-347.7h10.8v2.6h-10.8v-2.6Z"/>
    <path class="cls-2" d="M3679-346.1c0,6.6-4.6,11.1-10.8,11.1s-6.5-1.5-8.3-4.3v12.1h-2.9v-29.8h2.8v4.3c1.8-2.9,4.8-4.5,8.4-4.5,6.2,0,10.8,4.5,10.8,11ZM3676-346.1c0-5-3.5-8.5-8.1-8.5s-8.1,3.4-8.1,8.5,3.5,8.5,8.1,8.5,8.1-3.4,8.1-8.5Z"/>
    <path class="cls-2" d="M3682.4-337.3c0-1.3,1-2.2,2.2-2.2s2.2.9,2.2,2.2-1,2.3-2.2,2.3-2.2-1-2.2-2.3Z"/>
    <path class="cls-2" d="M3696.5-359.5v2.6h6.7v2.5h-6.6v19.3h-2.9v-19.3h-3.9v-2.5h3.9v-2.7c0-3.9,2.3-6.5,6.6-6.5s3.3.5,4.3,1.4l-1,2.2c-.8-.7-2-1.1-3.2-1.1-2.5,0-3.8,1.4-3.8,4.1Z"/>
    <path class="cls-2" d="M3721.4-357.1v2.9c-.2,0-.5,0-.7,0-4.6,0-7.3,2.9-7.3,8v11.1h-2.9v-21.8h2.8v4.3c1.4-2.9,4.1-4.4,8.2-4.4Z"/>
  </g>
  <text class="cls-1" transform="translate(4121.2 -1160.8)"><tspan x="0" y="0">jb-p.fr</tspan></text>
  <g>
    <path class="cls-5" d="M3068.2-1553.9v56.5c20.5,0,35.4-1.7,44.5-5.1,9.1-3.4,13.7-10.9,13.7-22.6s-4.5-19.9-13.4-23.4c-8.9-3.6-23.9-5.4-44.8-5.4Z"/>
    <path class="cls-5" d="M2925.8-1592.3v-225.5l-49.2,49.2v192.1l36.5,36.5c8.4-14.3,12.6-31.7,12.6-52.3Z"/>
    <path class="cls-5" d="M3268.1-1817.8v225c18.4-16.2,32.2-34.5,41.2-55,9-20.5,13.6-42,13.6-64.6s-4.6-40.8-13.8-59.2c-9.2-18.4-22.9-33.8-41-46.2Z"/>
    <path class="cls-5" d="M3230.3-1535.2c-5.6,3.4-11.5,6.4-17.5,9-3.8,1.5-11.9,4.7-24.3,9.6l-18.6-33.3c15.4-5.6,28.2-10.7,38.4-15.2,1.1-.4,8.5-3.8,22-10.2v-303.5l-25.7-25.7h-192.1l-49.4,49.4v263.9c0,20.7-2.2,37.7-6.5,50.8-3.3,9.9-8.2,19.5-14.8,28.9l70.7,70.7h192.1l25.7-25.7v-68.9ZM3140.2-1573.5c7.6,6,13.2,12.9,16.6,20.8,2.7,4.9,4.5,9.5,5.4,13.8,1,4.3,1.4,9.6,1.4,16,0,13.1-2.3,23.2-6.8,30.3-6.8,13.1-20.2,22.3-40.3,27.5-13.2,3.4-32,5.1-56.2,5.1h-29.5v-93.8h-39.7l-23-38.4h62.7v-291.5c20.4,0,47.1,17.3,80,52,35.2,37.3,52.8,72.2,52.8,104.6s-3.2,65.8-9.4,86.5c-6.3,20.7-18.4,39-36.3,54.8,9.1,3.7,16.6,7.9,22.3,12.4Z"/>
    <path class="cls-5" d="M3334.8-1620c-15.4,29-37.7,52.6-66.7,70.6v45.2l72.3-72.3v-55c-1.8,3.9-3.6,7.7-5.7,11.5Z"/>
    <path class="cls-5" d="M3068.2-1817.7v224.3c17.1-9.4,30.7-23.5,40.8-42.4,10.1-18.8,15.1-40.9,15.1-66.1s-5-46.9-14.8-66.1c-9.9-19.2-23.6-35.8-41.1-49.7Z"/>
  </g>
  <g>
    <path class="cls-4" d="M2748.7-1469.9v14.6c5.3,0,9.1-.4,11.5-1.3,2.4-.9,3.5-2.8,3.5-5.8s-1.2-5.1-3.5-6.1c-2.3-.9-6.2-1.4-11.6-1.4Z"/>
    <path class="cls-4" d="M2711.9-1479.8v-58.3l-12.7,12.7v49.6l9.4,9.4c2.2-3.7,3.3-8.2,3.3-13.5Z"/>
    <path class="cls-4" d="M2800.3-1538.1v58.1c4.8-4.2,8.3-8.9,10.7-14.2,2.3-5.3,3.5-10.9,3.5-16.7s-1.2-10.5-3.6-15.3c-2.4-4.8-5.9-8.7-10.6-11.9Z"/>
    <path class="cls-4" d="M2790.6-1465.1c-1.5.9-3,1.7-4.5,2.3-1,.4-3.1,1.2-6.3,2.5l-4.8-8.6c4-1.5,7.3-2.8,9.9-3.9.3,0,2.2-1,5.7-2.6v-78.4l-6.6-6.6h-49.6l-12.8,12.8v68.2c0,5.4-.6,9.7-1.7,13.1-.8,2.6-2.1,5-3.8,7.5l18.3,18.3h49.6l6.6-6.6v-17.8ZM2767.3-1475c2,1.5,3.4,3.3,4.3,5.4.7,1.3,1.2,2.4,1.4,3.6.2,1.1.4,2.5.4,4.1,0,3.4-.6,6-1.8,7.8-1.8,3.4-5.2,5.8-10.4,7.1-3.4.9-8.3,1.3-14.5,1.3h-7.6v-24.2h-10.3l-5.9-9.9h16.2v-75.3c5.3,0,12.2,4.5,20.7,13.4,9.1,9.6,13.6,18.6,13.6,27s-.8,17-2.4,22.3c-1.6,5.4-4.8,10.1-9.4,14.2,2.4,1,4.3,2,5.8,3.2Z"/>
    <path class="cls-4" d="M2817.6-1487c-4,7.5-9.7,13.6-17.2,18.3v11.7l18.7-18.7v-14.2c-.5,1-.9,2-1.5,3Z"/>
    <path class="cls-4" d="M2748.7-1538.1v58c4.4-2.4,7.9-6.1,10.5-10.9,2.6-4.9,3.9-10.6,3.9-17.1s-1.3-12.1-3.8-17.1c-2.6-5-6.1-9.2-10.6-12.8Z"/>
  </g>
  <g>
    <path class="cls-4" d="M82.6,151.2v24.4c8.9,0,15.3-.7,19.2-2.2,3.9-1.5,5.9-4.7,5.9-9.7s-1.9-8.6-5.8-10.1c-3.9-1.5-10.3-2.3-19.3-2.3Z"/>
    <path class="cls-4" d="M21.2,134.6V37.4L0,58.6v82.8l15.8,15.8c3.6-6.2,5.4-13.7,5.4-22.5Z"/>
    <path class="cls-4" d="M168.8,37.4v97c8-7,13.9-14.9,17.8-23.7,3.9-8.8,5.8-18.1,5.8-27.8s-2-17.6-6-25.5c-4-7.9-9.9-14.6-17.7-19.9Z"/>
    <path class="cls-4" d="M152.5,159.2c-2.4,1.5-5,2.8-7.6,3.9-1.6.7-5.1,2-10.5,4.1l-8-14.4c6.7-2.4,12.2-4.6,16.6-6.6.5-.2,3.7-1.6,9.5-4.4V11.1l-11.1-11.1H58.6l-21.3,21.3v113.8c0,8.9-.9,16.2-2.8,21.9-1.4,4.3-3.5,8.4-6.4,12.5l30.5,30.5h82.8l11.1-11.1v-29.7ZM113.6,142.7c3.3,2.6,5.7,5.6,7.2,9,1.1,2.1,1.9,4.1,2.3,5.9.4,1.9.6,4.2.6,6.9,0,5.7-1,10-2.9,13.1-2.9,5.7-8.7,9.6-17.4,11.9-5.7,1.5-13.8,2.2-24.2,2.2h-12.7v-40.4h-17.1l-9.9-16.6h27V8.9c8.8,0,20.3,7.5,34.5,22.4,15.2,16.1,22.8,31.1,22.8,45.1s-1.4,28.4-4.1,37.3c-2.7,8.9-7.9,16.8-15.7,23.6,3.9,1.6,7.2,3.4,9.6,5.3Z"/>
    <path class="cls-4" d="M197.6,122.7c-6.7,12.5-16.2,22.7-28.7,30.5v19.5l31.2-31.2v-23.7c-.8,1.7-1.6,3.3-2.4,4.9Z"/>
    <path class="cls-4" d="M82.6,37.4v96.7c7.4-4.1,13.2-10.1,17.6-18.3,4.3-8.1,6.5-17.6,6.5-28.5s-2.1-20.2-6.4-28.5c-4.3-8.3-10.2-15.4-17.7-21.4Z"/>
  </g>
  <g>
    <path class="cls-4" d="M8071-1843.4v536.2c194.9,0,335.7-16.1,422.4-48.2,86.6-32.2,129.9-103.6,129.9-214.5s-42.5-188.5-127.3-222.5c-84.8-33.9-226.5-50.9-425-50.9Z"/>
    <path class="cls-4" d="M6719.8-2208v-2140.4l-466.6,466.6v1823.5l346.7,346.7c79.7-135.5,119.9-300.8,119.9-496.3Z"/>
    <path class="cls-4" d="M9969.1-4348.8v2135.4c175.1-153.4,305.6-327.3,391.4-521.8,85.8-194.4,128.7-398.7,128.7-612.8s-43.8-387.1-131.4-562c-87.6-174.8-217.2-321-388.8-438.8Z"/>
    <path class="cls-4" d="M9609.8-1666.4c-53.6,32.2-109,60.8-166.2,85.8-35.7,14.3-112.6,44.8-230.6,91.2l-177-316.3c146.6-53.5,268.1-101.7,364.6-144.6,10.7-3.5,80.4-35.7,209.1-96.4v-2880.7l-243.7-243.7h-1823.5l-468.9,468.9v2505c0,196.6-20.6,357.5-61.6,482.6-30.9,94-77.9,185.4-140.9,274.2l671.5,671.5h1823.5l243.7-243.7v-653.8ZM8754.6-2030c72.4,56.9,124.8,122.7,157.4,197.2,25.3,46.2,42.6,89.7,51.6,130.6,9.1,40.9,13.6,91.5,13.6,151.8,0,124.4-21.5,220.3-64.6,287.9-64.7,124.4-192.1,211.5-382.4,261.1-125.7,32-303.4,48-533.1,48h-280v-890.1h-377.3l-217.9-364.6h595.2v-2766.8c193.9,0,447,164.5,759.3,493.6,333.8,354.1,500.8,685,500.8,992.5s-29.9,624.2-89.6,820.9c-59.7,196.7-174.7,370.2-344.8,520.4,86.8,35.5,157.4,74.7,211.7,117.3Z"/>
    <path class="cls-4" d="M10601.8-2471.2c-146.6,275.4-357.5,498.9-632.7,670.5v428.8l686.4-686.4v-521.8c-16.7,36.6-34.5,72.9-53.7,108.9Z"/>
    <path class="cls-4" d="M8071-4347.4v2128.7c162.5-89.3,291.6-223.4,387.2-402.1,95.7-178.7,143.6-387.8,143.6-627.4s-47-445-140.8-627.3c-93.9-182.3-223.9-339.6-390-471.9Z"/>
  </g>
</svg>